<?xml version="1.0" encoding="iso-8859-1"?>
<!-- Uploaded to: SVG Repo, www.svgrepo.com, Generator: SVG Repo Mixer Tools -->
<svg fill="#000000" height="800px" width="800px" version="1.1" id="Layer_1" xmlns="http://www.w3.org/2000/svg" xmlns:xlink="http://www.w3.org/1999/xlink" 
	 viewBox="0 0 463 463" xml:space="preserve">
<g>
	<g>
		<g>
			<path d="M431.5,23.999h-400c-17.369,0-31.5,14.13-31.5,31.5v288C0,360.868,14.131,375,31.5,375h135.504l-6.125,49H151.5
				c-4.142,0-7.5,3.358-7.5,7.5c0,4.142,3.358,7.5,7.5,7.5h15.994c0.005,0,0.01,0.001,0.016,0.001c0.007,0,0.014-0.001,0.021-0.001
				H295.47c0.007,0,0.014,0.001,0.021,0.001c0.005,0,0.01-0.001,0.016-0.001H311.5c4.142,0,7.5-3.358,7.5-7.5
				c0-4.142-3.358-7.5-7.5-7.5h-9.379l-6.125-49H431.5c17.369,0,31.5-14.131,31.5-31.5v-288C463,38.13,448.869,23.999,431.5,23.999z
				 M175.996,424l6.125-49h98.759l6.124,49H175.996z M448,343.5c0,9.098-7.402,16.5-16.5,16.5h-400c-9.098,0-16.5-7.402-16.5-16.5
				V327h433V343.5z M448,312H15v-256.5c0-9.099,7.402-16.5,16.5-16.5h400c9.098,0,16.5,7.402,16.5,16.5V312z"/>
			<path d="M223.5,351h16c4.142,0,7.5-3.358,7.5-7.5c0-4.142-3.358-7.5-7.5-7.5h-16c-4.142,0-7.5,3.358-7.5,7.5
				C216,347.641,219.358,351,223.5,351z"/>
			<path d="M423.5,55.999h-384c-4.142,0-7.5,3.358-7.5,7.5v224c0,4.142,3.358,7.5,7.5,7.5h384c4.142,0,7.5-3.358,7.5-7.5v-224
				C431,59.357,427.642,55.999,423.5,55.999z M416,280H47v-209h369V280z"/>
		</g>
	</g>
</g>
</svg>